<?xml version="1.0" encoding="utf-8"?>
<!-- Generator: Adobe Illustrator 27.5.0, SVG Export Plug-In . SVG Version: 6.00 Build 0)  -->
<svg version="1.1" id="Camada_1" xmlns="http://www.w3.org/2000/svg" xmlns:xlink="http://www.w3.org/1999/xlink" x="0px" y="0px"
	 viewBox="0 0 500 500" style="enable-background:new 0 0 500 500;" xml:space="preserve">
<style type="text/css">
	.st0{display:none;}
	.st1{display:inline;}
	.st2{fill:#FFFFFF;}
</style>
<g class="st0">
	<g class="st1">
		<path class="st2" d="M237.2,448.3c-58.1,0-116.3,0-174.5,0c0-128,0-255.9,0-384c127.9,0,255.9,0,384,0c0,127.9,0,256,0,384
			c-15.1,0-30.3,0-45.6,0c0-7.4,0-14.9,0-22.5c-7.3,0-14,0.1-20.7-0.1c-2.8-0.1-5.8-0.4-8.5-1.2c-9.5-2.9-15.5-11.4-15.8-21.7
			c-0.2-10.2,0.6-20.6-1-30.6c-3.5-22.6-25-38.1-48.5-36.2c-22.1,1.8-40.3,21.7-40.4,44.1c0,7.7,0.1,15.5-0.1,23.2
			c-0.3,11.8-8.4,20.6-20.2,22.3c-9.7,1.4-21.1-5.3-23.1-15.4c-1.9-9.5-1.5-19.4-2.1-29.4c8.3,0,15.5,0,22.8,0
			c0-45.2,0-90.2,0-135.1c-37.5,0-74.7,0-112.1,0c0,1.4,0,2.5,0,3.6c0,32.1,0,64.1,0,96.2c0,8.4-4.6,12.9-12.9,13
			c-3.1,0-6.2,0-9.3,0c0,7.7,0,15,0,22.5c3.6,0,7,0,10.3,0c19.6,0,34.3-14.6,34.3-34.2c0-24.8,0-49.6,0-74.5c0-1.3,0-2.7,0-4.1
			c7.6,0,14.9,0,22.6,0c0,37.7,0,75.2,0,113c7.7,0,15,0,22.3,0c0,7.6-0.1,14.9,0,22.1c0.2,16.6,7.3,29.6,21.4,38.2
			C225.5,444.6,231.6,446,237.2,448.3z M221.5,177.9c0-11.1,0-21.9,0-32.7c0-1.7,0-3.5,0.3-5.2c2.3-15.1,11.6-25.9,25.8-28.9
			c5.8-1.2,11.9-0.8,17.8-1.2c2.2-0.2,3.2,0.7,4.1,2.7c4.9,10.4,12.9,16.8,24.2,19.3c8.1,1.7,15.8-0.1,23.1-2.8
			c26.4-9.6,52.6-19.7,78.9-29.6c0.4-0.1,0.6-0.5,1.1-1c-6.4-2.6-12.5-5.3-18.6-7.6c-22.1-8-44-16.6-66.3-23.7
			c-19.4-6.1-33.4,0.7-42.8,18.6c-0.4,0.8-1.8,1.6-2.7,1.7c-4,0.2-8,0.1-12,0.1c-30.1,0.1-55.2,25.2-55.3,55.3c0,10.5,0,21,0,31.4
			c0,1.2-0.1,2.4-0.2,4c-7.6,0-14.8,0-22.1,0c0,15.1,0,29.7,0,44.5c22.4,0,44.7,0,66.9,0c0-15,0-29.7,0-44.8
			C236.2,177.9,229,177.9,221.5,177.9z"/>
		<path d="M237.2,448.3c-5.6-2.2-11.7-3.7-16.7-6.8c-14.1-8.6-21.3-21.6-21.4-38.2c-0.1-7.2,0-14.5,0-22.1c-7.4,0-14.7,0-22.3,0
			c0-37.9,0-75.3,0-113c-7.7,0-15,0-22.6,0c0,1.5,0,2.8,0,4.1c0,24.8,0,49.6,0,74.5c0,19.6-14.7,34.2-34.3,34.2c-3.4,0-6.7,0-10.3,0
			c0-7.5,0-14.7,0-22.5c3.1,0,6.2,0,9.3,0c8.3,0,12.9-4.6,12.9-13c0-32.1,0-64.1,0-96.2c0-1.1,0-2.2,0-3.6c37.4,0,74.6,0,112.1,0
			c0,44.9,0,89.9,0,135.1c-7.3,0-14.5,0-22.8,0c0.6,10.1,0.2,20,2.1,29.4c2,10.2,13.5,16.8,23.1,15.4c11.8-1.7,19.9-10.5,20.2-22.3
			c0.2-7.7,0-15.5,0.1-23.2c0.1-22.4,18.3-42.3,40.4-44.1c23.5-1.9,45,13.6,48.5,36.2c1.5,10,0.8,20.4,1,30.6
			c0.2,10.4,6.3,18.9,15.8,21.7c2.7,0.8,5.6,1.1,8.5,1.2c6.7,0.2,13.5,0.1,20.7,0.1c0,7.6,0,15,0,22.5c-9.7,0-19.5,0-29.2,0
			c-0.7-0.3-1.3-0.6-2-0.8c-21.5-4.6-36.2-22.6-36.2-44.6c0-7.2,0.1-14.5,0-21.7c-0.2-12.4-9.2-21.9-21.3-22.7
			c-11.1-0.8-21.5,7.3-23,19.1c-1.1,8.6-0.5,17.4-0.6,26.1c-0.1,19.7-13.4,37.5-32.2,42.9c-2,0.6-4,1.1-6,1.7
			C246.2,448.3,241.7,448.3,237.2,448.3z"/>
		<path class="st2" d="M250.7,448.3c2-0.6,4-1.1,6-1.7c18.8-5.4,32.1-23.2,32.2-42.9c0-8.7-0.5-17.5,0.6-26.1
			c1.5-11.8,11.9-19.8,23-19.1c12.1,0.9,21.1,10.3,21.3,22.7c0.1,7.2,0,14.5,0,21.7c0,22,14.7,40,36.2,44.6c0.7,0.1,1.3,0.5,2,0.8
			C331.6,448.3,291.1,448.3,250.7,448.3z"/>
		<path d="M221.5,177.9c7.5,0,14.7,0,22.2,0c0,15,0,29.8,0,44.8c-22.2,0-44.5,0-66.9,0c0-14.8,0-29.5,0-44.5c7.2,0,14.5,0,22.1,0
			c0.1-1.6,0.2-2.8,0.2-4c0-10.5,0-21,0-31.4c0.1-30.1,25.2-55.2,55.3-55.3c4,0,8,0.1,12-0.1c0.9,0,2.3-0.9,2.7-1.7
			c9.4-17.9,23.4-24.7,42.8-18.6c22.4,7.1,44.3,15.6,66.3,23.7c6.2,2.3,12.2,5,18.6,7.6c-0.5,0.5-0.8,0.9-1.1,1
			c-26.3,9.9-52.5,20-78.9,29.6c-7.3,2.7-15,4.5-23.1,2.8c-11.3-2.4-19.3-8.9-24.2-19.3c-0.9-2-1.9-2.8-4.1-2.7
			c-6,0.4-12.1,0-17.8,1.2c-14.2,3.1-23.5,13.9-25.8,28.9c-0.3,1.7-0.3,3.5-0.3,5.2C221.5,156,221.5,166.8,221.5,177.9z"/>
	</g>
</g>
<g>
	<g>
		<path class="st2" d="M434.5,54.3c0.2,1,0.7,2,0.7,3c0,14.8,0,29.7,0,44.5c0,112.2,0,224.3,0,336.5c-128,0-256,0-384,0
			c0-97.8,0-195.6,0-293.4c1.7-0.1,3.5-0.2,5.2-0.2c124.2,0,248.5,0,372.7,0c1.7,0,3.4,0,5.3,0C434.5,114.2,434.5,84.3,434.5,54.3z
			 M411.8,437.4c0-15.2,0-29.9,0-44.7c-112.7,0-225.2,0-337.8,0c0,15,0,29.8,0,44.7C186.6,437.4,299.1,437.4,411.8,437.4z M85,324.7
			c1.1,0.5,2,1,2.9,1.4c33.5,14.4,67,28.8,100.5,43.1c1.5,0.7,3.4,0.9,5.1,0.9c32.9,0.1,65.8,0.1,98.8,0c2,0,4.2-0.5,6.1-1.3
			c29.4-12.5,58.8-25.1,88.1-37.7c4.7-2,9.5-4.1,14.4-6.3c-7.7-15.3-15.1-30.2-22.5-45.1c-0.7,0.2-1,0.3-1.4,0.5
			c-31.6,13.1-63.1,26.3-94.7,39.5c-1.4,0.6-2.6,1.8-3.6,3c-11,14.4-21.9,28.8-32.8,43.2c-0.9,1.2-1.9,2.4-3,3.8
			c-12-15.8-23.6-31.2-35.4-46.5c-1.3-1.7-3.2-3.2-5.1-4c-21.4-9-42.9-17.9-64.3-26.9c-10.1-4.2-20.1-8.4-30.4-12.7
			C100,294.8,92.5,309.7,85,324.7z M209.2,223.6c-0.1,0.9-0.2,1.4-0.2,1.9c0,19.3-0.1,38.6,0.1,58c0,1.6,0.8,3.4,1.7,4.7
			c9.9,15.1,20,30.1,30,45.1c0.6,0.9,1.3,1.7,2.1,2.8c0.4-0.6,0.6-0.8,0.8-1.1c10.6-15.8,21.2-31.7,31.7-47.6
			c0.9-1.3,1.2-3.2,1.2-4.9c0.1-18.3,0.1-36.7,0-55c0-1.2-0.1-2.4-0.2-3.8C254,223.6,231.8,223.6,209.2,223.6z M242.9,166.9
			c-28.4,0-56.8,0-85.3,0c-5.1,0-5.1,0-5.1,5.3c0,3.2,0.2,6.5-0.1,9.7c-0.2,2.5,0.7,3.8,2.9,4.9c8.6,4.1,17.1,8.6,25.8,12.7
			c1.8,0.9,4,1.4,6,1.4c31.3,0.1,62.6-0.5,93.9,0.3c14.4,0.4,27.5-1.9,39.7-9.6c3.9-2.5,9.7-3.3,11.7-6.7c2.1-3.5,0.5-9.2,0.9-13.8
			c0.3-3.6-1-4.3-4.4-4.3C300.3,166.9,271.6,166.9,242.9,166.9z"/>
		<path d="M434.5,54.3c0,29.9,0,59.9,0,90.4c-1.9,0-3.6,0-5.3,0c-124.2,0-248.5,0-372.7,0c-1.7,0-3.5,0.1-5.2,0.2
			c0-30.2,0-60.3,0-90.6C179,54.3,306.8,54.3,434.5,54.3z M220.1,88.4c-7.5,0-14.7,0-22,0c0,7.4,0,14.6,0,21.8c7.4,0,14.7,0,22,0
			C220.1,102.9,220.1,95.7,220.1,88.4z M129.8,88.3c-7.5,0-14.6,0-21.8,0c0,7.4,0,14.7,0,21.9c7.5,0,14.6,0,21.8,0
			C129.8,102.9,129.8,95.8,129.8,88.3z M153.1,88.4c0,7.5,0,14.7,0,21.9c7.4,0,14.5,0,21.7,0c0-7.4,0-14.6,0-21.9
			C167.6,88.4,160.5,88.4,153.1,88.4z"/>
		<path d="M411.8,437.4c-112.7,0-225.1,0-337.8,0c0-14.9,0-29.7,0-44.7c112.6,0,225.1,0,337.8,0
			C411.8,407.5,411.8,422.2,411.8,437.4z"/>
		<path d="M85,324.7c7.5-15,15-29.9,22.5-45.1c10.3,4.3,20.3,8.5,30.4,12.7c21.5,8.9,42.9,17.8,64.3,26.9c1.9,0.8,3.8,2.3,5.1,4
			c11.8,15.3,23.4,30.7,35.4,46.5c1.1-1.4,2.1-2.6,3-3.8c10.9-14.4,21.8-28.8,32.8-43.2c0.9-1.2,2.2-2.5,3.6-3
			c31.5-13.2,63.1-26.3,94.7-39.5c0.3-0.1,0.7-0.2,1.4-0.5c7.4,14.9,14.9,29.8,22.5,45.1c-4.9,2.2-9.6,4.2-14.4,6.3
			c-29.4,12.6-58.7,25.2-88.1,37.7c-1.9,0.8-4,1.3-6.1,1.3c-32.9,0.1-65.8,0.1-98.8,0c-1.7,0-3.5-0.2-5.1-0.9
			c-33.5-14.3-67-28.7-100.5-43.1C87,325.7,86.2,325.3,85,324.7z"/>
		<path d="M209.2,223.6c22.5,0,44.8,0,67.3,0c0.1,1.4,0.2,2.6,0.2,3.8c0,18.3,0,36.7,0,55c0,1.6-0.3,3.6-1.2,4.9
			c-10.5,15.9-21.1,31.7-31.7,47.6c-0.2,0.3-0.4,0.6-0.8,1.1c-0.8-1.1-1.5-1.9-2.1-2.8c-10-15-20.1-30-30-45.1
			c-0.9-1.4-1.7-3.1-1.7-4.7c-0.1-19.3-0.1-38.6-0.1-58C209.1,224.9,209.2,224.5,209.2,223.6z"/>
		<path d="M242.9,166.9c28.7,0,57.3,0.1,86-0.1c3.4,0,4.7,0.8,4.4,4.3c-0.4,4.7,1.2,10.3-0.9,13.8c-2,3.4-7.9,4.2-11.7,6.7
			c-12.2,7.7-25.3,10-39.7,9.6c-31.3-0.8-62.6-0.2-93.9-0.3c-2,0-4.2-0.6-6-1.4c-8.6-4.1-17.1-8.6-25.8-12.7
			c-2.3-1.1-3.1-2.4-2.9-4.9c0.2-3.2,0.1-6.5,0.1-9.7c0-5.3,0-5.3,5.1-5.3C186.1,166.9,214.5,166.9,242.9,166.9z"/>
		<path class="st2" d="M220.1,88.4c0,7.3,0,14.4,0,21.8c-7.3,0-14.6,0-22,0c0-7.3,0-14.4,0-21.8C205.4,88.4,212.7,88.4,220.1,88.4z"
			/>
		<path class="st2" d="M129.8,88.3c0,7.4,0,14.5,0,21.9c-7.2,0-14.4,0-21.8,0c0-7.2,0-14.5,0-21.9C115.3,88.3,122.3,88.3,129.8,88.3
			z"/>
		<path class="st2" d="M153.1,88.4c7.4,0,14.4,0,21.7,0c0,7.4,0,14.5,0,21.9c-7.2,0-14.4,0-21.7,0C153.1,103,153.1,95.9,153.1,88.4z
			"/>
	</g>
</g>
<g class="st0">
	<g class="st1">
		<path class="st2" d="M179.9,488.2c-56,0-112.1,0-168.1,0c0-158.8,0-317.6,0-476.4c158.8,0,317.6,0,476.4,0
			c0,158.8,0,317.6,0,476.4c-100.9,0-201.8,0-302.8,0c0.2-0.2,0.4-0.5,0.6-0.6c41.7-24.7,61.9-67.8,53.9-115.7
			c-0.6-3.7,0.4-5,3.3-6.7c20.8-11.8,41.5-23.9,62.2-35.9c2.2-1.3,4.4-2.7,6.7-4.1c-0.9-1.7-1.7-3.1-2.4-4.4
			c-3.9-6.8-7.9-13.7-11.8-20.5c-1.6-2.7-1.7-5.1,1.3-6.7c2.9-1.5,4.6,0.2,6,2.6c0.7,1.2,1.4,2.4,2.1,3.6c4.1,7,8.2,14,12.4,21.2
			c5.7-3.3,11-6.4,16.5-9.5c-4.8-8.4-9.4-16.2-14-24.1c-1.5-2.5-2.7-5.3,0.5-7.3c3.3-2,5.1,0.4,6.5,3c2.6,4.6,5.2,9.1,7.9,13.7
			c2,3.5,4.1,7,6.3,10.7c5.8-3.4,10.9-6.4,16.3-9.5c-0.9-1.7-1.6-3.1-2.4-4.4c-4-7-8-14-12-20.9c-1.4-2.4-1.4-4.6,0.9-6.1
			c2.5-1.6,4.7-0.6,6.3,1.9c0.7,1.2,1.4,2.4,2.1,3.6c4.1,7.1,8.2,14.1,12.3,21.1c11.8-4.3,20.1-16.4,20.1-29.3
			c0-3.1,0.9-4.7,3.6-6.1c6.5-3.5,12.9-7.3,19.3-11.1c7.8-4.6,9.8-11.6,5.5-18.8c-4.1-6.9-11.3-8.5-18.9-4.2
			c-6.7,3.8-13.3,7.8-20.1,11.5c-1.2,0.7-3.4,0.9-4.5,0.3c-12.6-7-24.6-5.9-36.9,1.2c-41.5,24.2-83.2,48.1-124.8,72.2
			c-1.8,1.1-3.2,2.3-5.6,0.2c-25.7-22.1-55.5-30.7-89.1-26.2c-13.6,1.8-26.3,6.5-38.2,13.4c-4.4,2.6-5.7,7.5-3.4,11.6
			c2.2,3.9,6.7,5.2,11.3,3.2c1.1-0.5,2.2-1.1,3.3-1.7c20.2-10.6,41.6-13.6,63.8-8.5c38.4,8.7,66,38.2,71.9,78.1
			c5.2,35-10.2,71.7-43.5,92.3C172.2,476.5,172,482.4,179.9,488.2z M131.8,307.1c-46.8,0-84.7,37.8-84.7,84.6
			c0,47,37.9,85,84.8,85.1c46.4,0.1,84.7-38.2,84.9-84.8C217,345.3,178.8,307.1,131.8,307.1z M425.9,237.8
			c6.9-6.1,13.4-10.9,18.7-16.7c8.2-9,11.2-20,8.3-31.9c-1.7-6.8-3.5-14-7.2-19.9c-8.3-13.3-17.8-26-26.9-38.8
			c-9.8-13.9-20.2-27.4-29.2-41.7c-7.2-11.5-11.6-24.6-8.1-38.5c1.8-7,5.6-13.6,8.8-20.1c2.8-5.6,1.7-12-3.1-15.3
			c-4.8-3.4-11.4-3-15.1,1.7c-10.6,13.4-16.4,28.6-15.4,45.9c0.8,14.2,5.3,27.5,13.2,39.1c12.1,17.9,25.6,34.9,38,52.6
			c7,9.9,14,20.1,19.5,30.8c5.4,10.4,2.6,19.2-6.1,27c-1.8,1.6-3.7,3-5.6,4.6C423.2,223.9,424.1,225.7,425.9,237.8z M242,281.2
			c-0.5-1-0.7-1.7-1.1-2.3c-9.7-16.9-19.5-33.7-29.3-50.5c-4.8-8.3-13.3-11-20.9-6.8c-7.6,4.3-9.7,13.3-4.9,21.7
			c6.5,11.4,13.1,22.7,19.7,34.1c3.5,6.1,7.1,12.3,10.8,18.6C225.1,291,233.5,286.1,242,281.2z"/>
		<path d="M179.9,488.2c-7.9-5.8-7.6-11.7,0.7-16.9c33.3-20.6,48.7-57.3,43.5-92.3c-6-39.9-33.6-69.4-71.9-78.1
			c-22.2-5-43.6-2-63.8,8.5c-1.1,0.6-2.2,1.2-3.3,1.7c-4.5,2-9,0.7-11.3-3.2c-2.3-4.1-1-9,3.4-11.6c11.9-6.9,24.6-11.5,38.2-13.4
			c33.6-4.5,63.4,4.1,89.1,26.2c2.4,2.1,3.8,0.8,5.6-0.2c41.6-24,83.3-48,124.8-72.2c12.3-7.2,24.3-8.3,36.9-1.2
			c1.1,0.6,3.3,0.4,4.5-0.3c6.8-3.7,13.4-7.7,20.1-11.5c7.6-4.3,14.8-2.7,18.9,4.2c4.3,7.2,2.3,14.2-5.5,18.8
			c-6.4,3.8-12.8,7.6-19.3,11.1c-2.6,1.4-3.6,3-3.6,6.1c0,12.9-8.3,25-20.1,29.3c-4.1-7-8.2-14.1-12.3-21.1
			c-0.7-1.2-1.3-2.4-2.1-3.6c-1.5-2.5-3.7-3.5-6.3-1.9c-2.4,1.5-2.3,3.7-0.9,6.1c4.1,6.9,8,13.9,12,20.9c0.8,1.3,1.4,2.7,2.4,4.4
			c-5.4,3.1-10.5,6.1-16.3,9.5c-2.1-3.6-4.2-7.1-6.3-10.7c-2.6-4.5-5.2-9.1-7.9-13.7c-1.5-2.6-3.2-5-6.5-3c-3.3,2-2,4.7-0.5,7.3
			c4.5,7.9,9.1,15.8,14,24.1c-5.4,3.2-10.7,6.2-16.5,9.5c-4.2-7.2-8.3-14.2-12.4-21.2c-0.7-1.2-1.4-2.4-2.1-3.6
			c-1.3-2.4-3.1-4.1-6-2.6c-3,1.6-2.8,4-1.3,6.7c4,6.8,7.9,13.6,11.8,20.5c0.8,1.3,1.5,2.7,2.4,4.4c-2.3,1.4-4.5,2.8-6.7,4.1
			c-20.7,12-41.4,24-62.2,35.9c-2.9,1.7-3.9,3-3.3,6.7c8,47.9-12.2,91-53.9,115.7c-0.3,0.1-0.4,0.4-0.6,0.6
			C183.6,488.2,181.7,488.2,179.9,488.2z"/>
		<path d="M131.8,307.1c47,0,85.2,38.1,85,84.9c-0.2,46.6-38.5,84.9-84.9,84.8c-46.9-0.1-84.8-38.1-84.8-85.1
			C47.1,344.9,85,307.1,131.8,307.1z M109.2,391.8c0,12.6,10,22.7,22.5,22.8c12.3,0.1,22.7-10.3,22.8-22.7
			c0.1-12.4-10.2-22.7-22.7-22.7C119.3,369.3,109.3,379.2,109.2,391.8z M127.2,461.6c0.8,0.1,1.5,0.2,2.3,0.2
			c5.1,0.3,8.3-1.9,8.6-5.7c0.3-3.6-2.5-6.1-7.3-6.6c-0.8-0.1-1.5-0.1-2.3-0.2c-12.8-0.5-23.9-5.3-33.8-13.4
			c-4.2-3.5-8.1-3.7-10.5-0.5c-2.3,3-1.4,6.6,2.6,9.9C98.5,455,111.9,460.6,127.2,461.6z M180.8,343.3c-0.5-0.7-1.3-2.6-2.7-3.9
			c-12.7-11.1-27.4-17-44.3-17.5c-5.4-0.2-8,1.9-8,6.1c0,4,2.4,5.9,7.6,6.1c12.4,0.5,23.6,4.4,33.5,11.9c1.7,1.3,3.3,2.9,5.2,3.9
			C176.2,352.2,180.9,349.2,180.8,343.3z"/>
		<path d="M425.9,237.8c-1.8-12.2-2.7-13.9-10.1-21.3c1.9-1.5,3.8-3,5.6-4.6c8.7-7.8,11.5-16.7,6.1-27
			c-5.6-10.8-12.5-20.9-19.5-30.8c-12.5-17.7-25.9-34.7-38-52.6c-7.9-11.6-12.3-24.9-13.2-39.1c-1-17.3,4.8-32.5,15.4-45.9
			c3.7-4.7,10.3-5.1,15.1-1.7c4.8,3.4,5.8,9.8,3.1,15.3c-3.3,6.6-7.1,13.1-8.8,20.1c-3.5,13.8,0.9,26.9,8.1,38.5
			c9,14.4,19.4,27.9,29.2,41.7c9.1,12.9,18.5,25.5,26.9,38.8c3.7,5.9,5.5,13,7.2,19.9c2.9,11.9,0,22.9-8.3,31.9
			C439.3,226.9,432.8,231.8,425.9,237.8z"/>
		<path d="M242,281.2c-8.5,4.9-16.9,9.8-25.6,14.8c-3.7-6.3-7.2-12.5-10.8-18.6c-6.6-11.4-13.2-22.7-19.7-34.1
			c-4.8-8.5-2.8-17.4,4.9-21.7c7.5-4.2,16-1.5,20.9,6.8c9.8,16.8,19.5,33.7,29.3,50.5C241.3,279.5,241.6,280.2,242,281.2z"/>
		<path class="st2" d="M109.2,391.8c0-12.6,10.1-22.5,22.7-22.5c12.5,0,22.8,10.3,22.7,22.7c-0.1,12.4-10.5,22.8-22.8,22.7
			C119.3,414.5,109.2,404.4,109.2,391.8z"/>
		<path class="st2" d="M127.2,461.6c-15.3-1-28.7-6.5-40.5-16.3c-4-3.3-4.9-6.9-2.6-9.9c2.4-3.2,6.3-3,10.5,0.5
			c9.8,8.1,20.9,12.9,33.8,13.4c0.8,0,1.5,0.1,2.3,0.2c4.9,0.5,7.6,3,7.3,6.6c-0.3,3.8-3.5,6-8.6,5.7
			C128.7,461.8,127.9,461.7,127.2,461.6z"/>
		<path class="st2" d="M180.8,343.3c0.1,5.8-4.6,8.9-8.7,6.6c-1.9-1-3.4-2.6-5.2-3.9c-9.9-7.5-21.1-11.4-33.5-11.9
			c-5.2-0.2-7.6-2.1-7.6-6.1c0-4.2,2.5-6.3,8-6.1c16.8,0.5,31.6,6.4,44.3,17.5C179.5,340.7,180.3,342.6,180.8,343.3z"/>
	</g>
</g>
</svg>
