<?xml version="1.0" encoding="utf-8"?>
<!-- Generator: Adobe Illustrator 27.6.1, SVG Export Plug-In . SVG Version: 6.00 Build 0)  -->
<svg version="1.1" id="Camada_1" xmlns="http://www.w3.org/2000/svg" xmlns:xlink="http://www.w3.org/1999/xlink" x="0px" y="0px"
	 viewBox="0 0 500 500" style="enable-background:new 0 0 500 500;" xml:space="preserve">
<g>
	<g>
		<path d="M434.5,58.7c4,2.7,7.6,5.6,7.5,11.1c-0.1,6.6-4.6,11.3-11.2,11.3c-17.8,0-35.7,0.1-53.5-0.1c-3.2,0-4.7,0.7-6,4.1
			c-7,17.9-20.2,27.8-39.4,29.6c-2.3,0.2-3,0.9-2.9,3.1c0.1,9.1,0,18.2,0.1,27.3c0,2.5-0.6,3.4-3.3,3.4c-50.3-0.1-100.5-0.1-150.8,0
			c-2.7,0-3.3-0.9-3.2-3.4c0.1-9.1,0-18.2,0.1-27.3c0-2.2-0.6-3-2.9-3.1c-18-1-33.6-12.9-39.6-30.3c-0.9-2.5-2-3.4-4.6-3.3
			C107.4,81.3,90.2,81,73,81.3c-6.8,0.1-11.6-2-14.3-8.3c0-2.2,0-4.5,0-6.7c1.7-3.2,4.6-5.4,7.5-7.5C189,58.7,311.8,58.7,434.5,58.7
			z"/>
		<path d="M58.7,397.1c3.5-6.2,8.8-7.6,15.6-7.6c43.2,0.2,86.5,0.1,129.7,0.1c8.3,0,12.6,4.3,12.6,12.6c0,9.5,0,18.9,0,28.4
			c0,6.5-4.7,11.3-11.3,11.3c-45.1,0-90.2,0-135.4,0c-5.9,0-8.8-3.7-11.3-8.2C58.7,421.5,58.7,409.3,58.7,397.1z"/>
		<path d="M363,442c-22.1,0-44.2-0.2-66.2,0.1c-8.1,0.1-13.1-6.2-12.8-12.7c0.4-9.3,0.1-18.7,0.1-28.1c0-7,4.6-11.7,11.6-11.7
			c44.8,0,89.6,0,134.4,0c7.5,0,11.9,4.5,12,12.2c0,9.1-0.4,18.2,0.1,27.3c0.4,7.2-4.9,13.2-13.2,13.1C406.9,441.8,385,442,363,442
			C363,442,363,442,363,442z"/>
		<path d="M176.8,171.2c49.2,0,97.9,0,147.1,0c-5.5,8.8-10.7,17.2-15.9,25.6c-1.8,2.9-3.7,5.6-5.3,8.6c-1.3,2.4-2.8,3.2-5.5,3.2
			c-30.9-0.1-61.9-0.1-92.8,0c-3.1,0-4.9-0.8-6.5-3.5C191.1,193.8,184.1,182.8,176.8,171.2z"/>
		<path d="M250.3,230.9c12.7,0,25.4,0.1,38.1-0.1c2.4,0,3.1,0.7,3.1,3.1c-0.1,10.3,0,20.7-0.1,31c0,5.8-4.8,10.8-10.7,10.8
			c-20.3,0.1-40.6,0.1-60.9,0c-5.9,0-10.7-4.9-10.7-10.8c-0.1-10.5,0.1-20.9-0.1-31.4c0-2.5,1-2.8,3.1-2.8
			C224.9,231,237.6,230.9,250.3,230.9z"/>
		<path d="M261.6,366.4c0,21.2,0,42.4,0,63.6c0,7.1-4.7,12.1-11.4,12c-6.4-0.1-11.1-5-11.1-12c0-42.7,0-85.5-0.1-128.2
			c0-2.7,0.5-3.7,3.4-3.6c5.3,0.3,10.7,0.2,16.1,0c2.5-0.1,3.1,0.8,3.1,3.2C261.5,323.1,261.6,344.8,261.6,366.4z"/>
		<path d="M171.6,271.3c3.3,0.3,6.1,1.2,8.4,3.4c7.1,7,14.2,14,21.1,21.1c4.7,4.8,4.7,11.5,0.1,16c-4.5,4.5-11.2,4.7-16,0
			c-7.2-6.9-14.2-14-21.1-21.1c-3.5-3.6-4.4-7.9-2.2-12.7C163.8,273.6,167.5,272,171.6,271.3z"/>
		<path d="M329,271.3c4.2,0.5,7.7,2.3,9.8,6.5c2.3,4.6,1.6,8.9-1.8,12.4c-7.1,7.5-14.4,14.8-21.9,21.9c-4.6,4.4-11.6,3.9-15.8-0.5
			c-4.3-4.6-4.3-11.1,0.2-15.8c7-7.1,14.1-14.1,21.1-21.2C322.9,272.6,325.6,271.4,329,271.3z"/>
		<path d="M160.6,352.2c-5,0-10,0-14.9,0c-6.6-0.1-11.3-4.9-11.3-11.3c0-6.4,4.8-11.1,11.4-11.2c9.8,0,19.7,0,29.5,0
			c6.6,0,11.4,4.7,11.5,11c0.1,6.6-4.7,11.3-11.6,11.4C170.3,352.2,165.5,352.2,160.6,352.2z"/>
		<path d="M340.1,352.2c-4.9,0-9.7,0-14.6,0c-6.6-0.1-11.5-4.8-11.5-11.2c0-6.6,4.8-11.3,11.7-11.3c9.7,0,19.5,0,29.2,0
			c6.7,0,11.4,4.7,11.5,11.1c0,6.5-4.7,11.2-11.3,11.3C350.1,352.2,345.1,352.2,340.1,352.2z"/>
	</g>
</g>
</svg>
