<?xml version="1.0" encoding="utf-8"?>
<!-- Generator: Adobe Illustrator 27.6.1, SVG Export Plug-In . SVG Version: 6.00 Build 0)  -->
<svg version="1.1" id="Camada_1" xmlns="http://www.w3.org/2000/svg" xmlns:xlink="http://www.w3.org/1999/xlink" x="0px" y="0px"
	 viewBox="0 0 500 500" style="enable-background:new 0 0 500 500;" xml:space="preserve">
<style type="text/css">
	.st0{fill:#010202;}
</style>
<g>
	<g>
		<path d="M46,377.4c0-23.7,0-47.4,0-71.1c2.6-4.8,5.5-9.3,11-10.9c2.5-0.7,2.6-2,2.6-4c-0.1-6.9,0-13.8,0-20.8
			c0-7.4,3.5-12.8,10.2-15.6c3-1.3,3.5-2.8,3.5-5.6c-0.1-61.2,0-122.4,0-183.6c0-7.8,1.7-9.5,9.6-9.5c111.6,0,223.3,0,334.9,0
			c8.4,0,10,1.6,10,10c0,61.2,0,122.4,0,183.6c0,2.6,0.5,3.9,3.1,5c6.8,2.9,10.4,8.3,10.4,15.9c0,6.9,0,13.8,0,20.8
			c0,1.6-0.1,3,2,3.7c7.9,2.6,11.6,7.8,11.6,16c0,20.2,0,40.4,0,60.7c0,11.3-6.2,17.8-17.4,18.2c-1.9,0.1-2.9,0.4-2.8,2.6
			c0.1,11.8,0.1,23.7,0,35.5c0,2.1,0.6,2.8,2.7,2.7c3.6-0.1,7.2-0.1,10.8,0c4.1,0.2,6.7,3,6.8,6.9c0,4-2.4,6.4-6.8,6.7
			c-1.1,0.1-2.1,0.1-3.2,0.1c-129.9,0-259.7,0-389.6,0.1c-3.9,0-7-0.9-9.3-4.2c0-1.9,0-3.7,0-5.6c2.5-3.5,6-4.3,10.1-4
			c2.5,0.2,5-0.1,7.6,0.1c2,0.1,2.7-0.4,2.7-2.6c-0.2-10.6-0.1-21.2-0.1-31.8c0-5.7,0-5.7-5.9-6.4c-0.6-0.1-1.3-0.3-1.9-0.5
			C51.9,387.9,48.5,383.1,46,377.4z M128,182.1C128,182.1,128,182.1,128,182.1c0,22.4,0,44.7,0,67.1c0,2.4-0.3,4.6,3.6,4.5
			c20.2-0.2,40.4-0.1,60.7,0c2.6,0,3.5-0.8,3.5-3.3c-0.1-7.2,0-14.4,0-21.6c0-6.8,2.2-9.3,8.9-9.3c30.5-0.1,60.9-0.1,91.4,0
			c6.8,0,9,2.4,9,9.2c0,6.9,0.1,13.8-0.1,20.8c-0.1,3.3,0.9,4.3,4.2,4.3c19.6-0.1,39.1-0.2,58.7,0.1c4.2,0.1,5-1.2,5-5.1
			c-0.1-38.6-0.1-77.2-0.1-115.8c0-6.1-0.1-12.2,0-18.4c0-2.9-1-3.9-4-3.9c-20,0.1-39.9,0.1-59.9,0c-3,0-4,1.1-4,3.9c0,6,0,12,0,18
			c0,5.3,0,5.3,5.4,5.3c2.5,0,5.5,1,7.3-0.5c1.6-1.4,0.3-4.3,0.6-6.5c0.5-3.7,3-6.3,6.4-6.5c3.9-0.3,6.7,1.7,7.2,5.8
			c1,9.7,0.7,19.4,0.1,29c-0.3,4.3-2.9,6.2-6.8,6.2c-3.9-0.1-6.3-2.6-6.9-6.9c-0.3-2.1,1.2-5.1-0.9-6.3c-1.7-1-4.4-0.4-6.7-0.5
			c-0.8,0-1.6,0.1-2.4,0c-2.5-0.2-3.6,0.8-3.5,3.5c0.1,5.1,0.1,10.1,0,15.2c-0.1,6.6-2.3,8.7-8.9,8.8c-4.9,0.1-9.8,0.1-14.8,0
			c-2.5,0-3.6,0.8-3.6,3.5c0.1,5.3,0,10.6,0,16c-0.1,5.2-2.2,7.7-7.4,7.8c-13.2,0.2-26.3,0.2-39.5,0c-5.5-0.1-7.4-2.5-7.5-8.1
			c0-4.9-0.2-9.9,0.1-14.8c0.1-3.2-1.2-4.3-4.2-4.3c-4.5,0-9,0-13.6,0c-7.7,0-9.8-2.2-9.8-10c0-4,0-8,0-12c0-5.2-0.2-5.4-5.3-5.4
			c-0.8,0-1.6,0-2.4,0c-5.4,0.1-5.4,0.1-5.6,5.7c0,1-0.3,2.1-0.5,3.1c-1,3.6-3.6,4.8-7,4.6c-3.3-0.2-5.4-1.7-6.1-5.1
			c-0.7-3.2-0.5-6.4-0.4-9.5c0.1-6.8-0.7-13.6,0.4-20.3c0.7-4.2,3.3-6.2,7.1-5.9c3.7,0.3,6.1,2.7,6.6,6.7c0.3,2.2-1.1,5.2,0.7,6.3
			c1.8,1.1,4.6,0.4,7,0.4c0.8,0,1.6-0.1,2.4,0c2.5,0.3,3.2-0.9,3.2-3.2c-0.1-6.1,0-12.2,0-18.4c-0.1-5.5-0.1-5.5-5.6-5.5
			c-18.9,0-37.8,0-56.7,0c-5.5,0-5.5,0-5.5,5.6C128,138.2,128,160.2,128,182.1z M250.4,430.8C250.4,430.8,250.4,430.8,250.4,430.8
			c41.8,0,83.6,0,125.3,0.1c3,0,4.2-0.5,4.1-3.9c-0.2-11-0.2-22.1,0-33.1c0.1-3.4-1.1-4-4.1-3.9c-6.4,0.2-12.8,0.1-19.2,0.1
			c-77,0-154.1,0-231.1-0.1c-3.3,0-4.6,0.6-4.5,4.3c0.3,10.8,0.2,21.6,0,32.3c-0.1,3.2,0.7,4.2,4.1,4.2
			C166.8,430.8,208.6,430.8,250.4,430.8z M250.4,294.4C250.4,294.4,250.4,294.4,250.4,294.4c26.7,0,53.5,0,80.2,0
			c30.9,0,61.7-0.1,92.6,0.1c3.5,0,4.7-0.9,4.4-4.5c-0.3-5-0.1-10.1-0.1-15.2c0-6.9-0.3-7.3-7.2-7.3c-97.5,0-195.1,0-292.6,0
			c-16.1,0-32.2,0-48.3,0c-5.7,0-6.3,0.6-6.3,6.4c0,5.1,0,10.1,0,15.2c0,5.2,0,5.2,5.2,5.2C135.7,294.4,193.1,294.4,250.4,294.4z
			 M93.9,342.2c0,11.6,8.9,21,20.2,20.5c13.3-0.6,20-9,20.3-20.5c0.3-11.4-8.8-19.9-20.3-20C102.6,322.1,93.9,330.7,93.9,342.2z
			 M257.5,342.4c0,11.7,8.4,20.3,19.9,20.4c11.4,0.2,20.5-8.9,20.5-20.4c0-11.8-8.7-20.2-20.9-20.2
			C265.9,322.3,257.5,330.9,257.5,342.4z M332.5,322.2c-11.6-0.1-20.4,8.3-20.6,19.7c-0.1,11.7,8.4,20.6,20,20.9
			c11.2,0.3,20.6-9,20.7-20.3C352.7,331.1,343.9,322.3,332.5,322.2z M386.7,322.2c-9.3-0.3-20.2,6-20.3,20c-0.1,11.8,7,20,20.2,20.5
			c11.3,0.5,20.2-8.8,20.3-20.1C407,330.9,398.5,322.3,386.7,322.2z M243.3,342.3c-0.1-12-8.5-20.2-20.8-20.1
			c-10.9,0.1-19.5,8.8-19.6,19.9c-0.1,11.6,8.7,20.6,20.2,20.7C234.6,362.8,243.3,354,243.3,342.3z M168.7,322.2
			c-11.7,0-20.6,8.8-20.5,20.3c0.1,11.2,9.2,20.2,20.3,20.3c11.3,0.1,20.3-8.9,20.4-20.1C189,330.9,180.5,322.3,168.7,322.2z
			 M420.5,410.8c0-6-0.1-12,0-18c0-2.1-0.7-2.8-2.7-2.7c-7,0.1-14.1,0.2-21.1,0c-2.8-0.1-3.3,1.1-3.3,3.5c0.1,11.3,0.1,22.6,0,33.9
			c0,2.6,0.6,3.5,3.3,3.4c7-0.2,14.1-0.2,21.1,0c2.4,0.1,2.8-0.8,2.8-3C420.4,422.2,420.5,416.5,420.5,410.8z M80.3,410.1
			c0,5.9,0.1,11.7,0,17.6c0,2.3,0.4,3.3,3,3.3c7-0.2,14.1-0.1,21.1,0c2.2,0,3-0.6,3-2.9c-0.1-11.4-0.1-22.9,0-34.3
			c0-2.5-0.6-3.6-3.4-3.5c-6.9,0.1-13.8,0.2-20.7,0c-2.7-0.1-3.1,1-3,3.3C80.4,398.9,80.3,404.5,80.3,410.1z"/>
		<path d="M336.9,346.3c-2.8,3.2-4.6,3.5-8.3,1.2C331.6,347.3,334.4,348,336.9,346.3z"/>
		<path d="M392,339.2c1.7,3.3,1.6,5.8-0.5,7.9c-2,2-4.4,2.7-7.5,0.8C389.6,347.9,391.4,344.4,392,339.2z"/>
		<path d="M219.2,347.2c6.1,1.4,8-2.7,9.7-8c1.4,3.8,1.2,6.6-1.4,8.5C224.8,349.6,221.9,350,219.2,347.2z"/>
		<path d="M175.2,342.7c0.1,3.6-2.8,6.4-6.5,6.5c-3.8,0.1-6.6-2.8-6.6-6.8c0-3.8,2.5-6.3,6.5-6.4
			C172.3,335.9,175.2,338.8,175.2,342.7z M168.4,337.2c-2.7,0.5-4.8,1.7-4.8,4.8c0.1,2.9,2.3,4.3,4.8,4.1c2.7-0.2,4.8-2.1,4.9-4.8
			C173.6,338.2,170.9,337.7,168.4,337.2z"/>
	</g>
</g>
<circle class="st0" cx="168.1" cy="342.6" r="10.2"/>
<circle class="st0" cx="113.8" cy="342.7" r="10.2"/>
<circle class="st0" cx="223.2" cy="342.6" r="10.2"/>
<circle class="st0" cx="277.6" cy="342.6" r="10.2"/>
<circle class="st0" cx="332.5" cy="342.7" r="10.2"/>
<circle class="st0" cx="386.8" cy="342.6" r="10.2"/>
</svg>
